Season 1, Episode 8 – Aired: 5/20/2011
Igraine

A disguised Morgan infiltrates the castle and tries to sow seeds of distrust among the men. Meanwhile Igraine tries to escape Castle Pendragon.


Format : AVI
Format/Info : Audio Video Interleave
File size : 496 MiB
Duration : 52mn 1s
Overall bit rate : 1 334 Kbps
Writing application : Lavf52.47.0

Video
ID : 0
Format : xvid
Codec ID : xvid
Duration : 52mn 1s
Bit rate : 1 194 Kbps
Width : 640 pixels
Height : 360 pixels
Display aspect ratio : 16:9
Frame rate : 25.000 fps
Bits/(Pixel*Frame) : 0.207
Stream size : 444 MiB (89%)

Audio
ID : 1
Format : MPEG Audio
Format version : Version 1
Format profile : Layer 3
Mode : Joint stereo
Codec ID : 55
Codec ID/Hint : MP3
Duration : 52mn 1s
Bit rate mode : Constant
Bit rate : 128 Kbps
Channel(s) : 2 channels
Sampling rate : 44.1 KHz
Compression mode : Lossy
Stream size : 47.6 MiB (10%)
Alignment : Aligned on interleaves
Interleave, duration : 26 ms (0.65 video frame)
Writing library : LAME3.98.2
